<svg id="SvgjsSvg1014" xmlns="http://www.w3.org/2000/svg" version="1.1" xmlns:xlink="http://www.w3.org/1999/xlink" xmlns:svgjs="http://svgjs.com/svgjs" width="42" height="40"><defs id="SvgjsDefs1015"></defs><path id="SvgjsPath1016" d="M751.977 9517.07C751.977 9520.43 753.0989999999999 9522.86 755.313 9524.289999999999C757.124 9525.449999999999 759.228 9525.63 760.321 9525.63C760.586 9525.63 760.799 9525.619999999999 760.947 9525.609999999999C760.947 9525.609999999999 760.6 9527.869999999999 762.274 9530.099999999999L762.199 9530.099999999999C759.298 9530.099999999999 749.838 9530.71 749.838 9538.479999999998C749.838 9546.399999999998 758.5269999999999 9546.799999999997 760.27 9546.799999999997C760.406 9546.799999999997 760.486 9546.789999999997 760.486 9546.789999999997C760.505 9546.799999999997 760.63 9546.799999999997 760.842 9546.799999999997C761.961 9546.799999999997 764.852 9546.659999999998 767.537 9545.349999999997C771.02 9543.659999999996 772.788 9540.719999999998 772.788 9536.609999999997C772.788 9532.639999999998 770.096 9530.279999999997 768.13 9528.549999999997C766.931 9527.499999999998 765.895 9526.589999999998 765.895 9525.709999999997C765.895 9524.809999999998 766.651 9524.129999999997 767.608 9523.269999999997C769.159 9521.879999999997 770.6199999999999 9519.909999999996 770.6199999999999 9516.179999999997C770.6199999999999 9512.899999999996 770.1939999999998 9510.699999999997 767.5749999999999 9509.299999999997C767.848 9509.159999999998 768.813 9509.059999999998 769.2919999999999 9508.999999999998C770.7109999999999 9508.799999999997 772.7879999999999 9508.579999999998 772.7879999999999 9507.419999999998L772.7879999999999 9507.199999999999L762.4399999999999 9507.199999999999C762.337 9507.199999999999 751.977 9507.589999999998 751.977 9517.07ZM768.68 9537.35C768.8779999999999 9540.52 766.1709999999999 9542.85 762.106 9543.15C757.978 9543.449999999999 754.58 9541.59 754.382 9538.43C754.286 9536.91 754.954 9535.42 756.261 9534.24C757.587 9533.039999999999 759.4069999999999 9532.3 761.3879999999999 9532.15C761.6209999999999 9532.14 761.853 9532.13 762.0849999999999 9532.13C765.905 9532.13 768.4929999999999 9534.369999999999 768.68 9537.349999999999ZM765.978 9514.91C766.9929999999999 9518.48 765.4599999999999 9522.21 763.0179999999999 9522.9C762.7379999999999 9522.98 762.4469999999999 9523.02 762.1529999999999 9523.02C759.9149999999998 9523.02 757.6979999999999 9520.76 756.877 9517.640000000001C756.418 9515.890000000001 756.4549999999999 9514.35 756.982 9512.880000000001C757.499 9511.43 758.428 9510.45 759.598 9510.130000000001C759.8789999999999 9510.050000000001 760.1709999999999 9510.01 760.4639999999999 9510.01C763.1659999999999 9510.01 764.9019999999999 9511.130000000001 765.978 9514.91ZM790.162 9522.68L790.162 9526.960000000001L783.412 9526.960000000001L783.412 9533.710000000001L779.1370000000001 9533.710000000001L779.1370000000001 9526.960000000001L772.3870000000001 9526.960000000001L772.3870000000001 9522.68L779.1370000000001 9522.68L779.1370000000001 9515.93L783.412 9515.93L783.412 9522.68Z " fill="#ffffff" transform="matrix(1,0,0,1,-749,-9507)"></path></svg>