<svg id="SvgjsSvg1023" xmlns="http://www.w3.org/2000/svg" version="1.1" xmlns:xlink="http://www.w3.org/1999/xlink" xmlns:svgjs="http://svgjs.com/svgjs" width="28" height="46"><defs id="SvgjsDefs1024"></defs><path id="SvgjsPath1025" d="M898 9525.73C904.453 9525.73 909.699 9520.48 909.699 9514.029999999999C909.699 9507.579999999998 904.453 9502.329999999998 898 9502.329999999998C891.548 9502.329999999998 886.301 9507.579999999998 886.301 9514.029999999999C886.301 9520.48 891.548 9525.73 898 9525.73ZM898 9509.19C900.672 9509.19 902.844 9511.36 902.844 9514.03C902.844 9516.7 900.672 9518.880000000001 898 9518.880000000001C895.331 9518.880000000001 893.156 9516.7 893.156 9514.03C893.156 9511.36 895.3309999999999 9509.19 898 9509.19ZM902.733 9535.27C905.1149999999999 9534.73 907.4119999999999 9533.79 909.5269999999999 9532.460000000001C911.1279999999999 9531.45 911.6099999999999 9529.34 910.602 9527.730000000001C909.5939999999999 9526.130000000001 907.4789999999999 9525.650000000001 905.875 9526.660000000002C901.083 9529.670000000002 894.913 9529.670000000002 890.124 9526.660000000002C888.52 9525.650000000001 886.405 9526.130000000001 885.399 9527.730000000001C884.39 9529.340000000002 884.871 9531.45 886.472 9532.460000000001C888.587 9533.79 890.884 9534.730000000001 893.266 9535.27L886.7249999999999 9541.810000000001C885.3879999999999 9543.150000000001 885.3879999999999 9545.320000000002 886.7259999999999 9546.660000000002C887.3959999999998 9547.330000000002 888.2729999999999 9547.660000000002 889.1489999999999 9547.660000000002C890.0269999999999 9547.660000000002 890.9039999999999 9547.330000000002 891.5739999999998 9546.660000000002L897.9989999999998 9540.230000000001L904.4289999999997 9546.660000000002C905.7659999999997 9548.000000000002 907.9349999999997 9548.000000000002 909.2739999999998 9546.660000000002C910.6139999999998 9545.320000000002 910.6139999999998 9543.150000000001 909.2739999999998 9541.810000000001Z " fill="#ffffff" transform="matrix(1,0,0,1,-884,-9502)"></path></svg>