<svg id="SvgjsSvg1020" xmlns="http://www.w3.org/2000/svg" version="1.1" xmlns:xlink="http://www.w3.org/1999/xlink" xmlns:svgjs="http://svgjs.com/svgjs" width="39" height="39"><defs id="SvgjsDefs1021"></defs><path id="SvgjsPath1022" d="M527.012 9505.15L497.98699999999997 9505.15C495.32699999999994 9505.15 493.15 9507.33 493.15 9509.99L493.15 9539.01C493.15 9541.67 495.327 9543.85 497.98699999999997 9543.85L513.7919999999999 9543.85L513.7919999999999 9529.220000000001L509.1579999999999 9529.220000000001L509.1579999999999 9523.18L513.7919999999999 9523.18L513.7919999999999 9520.9C513.7919999999999 9516.23 516.1139999999999 9512.57 520.5149999999999 9512.57L524.7859999999998 9512.57L524.7859999999998 9519.4L520.9649999999998 9519.4C519.9639999999998 9519.4 519.6709999999998 9519.97 519.6709999999998 9520.77L519.6709999999998 9523.18L524.7859999999998 9523.18L524.7859999999998 9529.220000000001L519.6709999999998 9529.220000000001L519.6709999999998 9543.85L527.0119999999998 9543.85C529.6729999999998 9543.85 531.8499999999998 9541.67 531.8499999999998 9539.01L531.8499999999998 9509.99C531.8499999999998 9507.33 529.6729999999998 9505.15 527.0119999999998 9505.15Z " fill="#ffffff" transform="matrix(1,0,0,1,-493,-9505)"></path></svg>