<svg id="SvgjsSvg1008" xmlns="http://www.w3.org/2000/svg" version="1.1" xmlns:xlink="http://www.w3.org/1999/xlink" xmlns:svgjs="http://svgjs.com/svgjs" width="37" height="27"><defs id="SvgjsDefs1009"></defs><path id="SvgjsPath1010" d="M717.14 9387.5L717.14 9385.34C717.14 9384.54 716.495 9383.9 715.6999999999999 9383.9L683.3 9383.9C682.505 9383.9 681.8599999999999 9384.539999999999 681.8599999999999 9385.34L681.8599999999999 9387.5L685.4599999999999 9387.5L685.4599999999999 9391.1L681.8599999999999 9391.1L681.8599999999999 9394.7L685.4599999999999 9394.7L685.4599999999999 9398.300000000001L681.8599999999999 9398.300000000001L681.8599999999999 9401.900000000001L685.4599999999999 9401.900000000001L685.4599999999999 9405.500000000002L681.8599999999999 9405.500000000002L681.8599999999999 9407.660000000002C681.8599999999999 9408.450000000003 682.5049999999999 9409.100000000002 683.3 9409.100000000002L715.6999999999999 9409.100000000002C716.4949999999999 9409.100000000002 717.14 9408.450000000003 717.14 9407.660000000002L717.14 9405.500000000002L713.54 9405.500000000002L713.54 9401.900000000001L717.14 9401.900000000001L717.14 9398.300000000001L713.54 9398.300000000001L713.54 9394.7L717.14 9394.7L717.14 9391.1L713.54 9391.1L713.54 9387.5ZM695.54 9401.9L695.54 9391.1L704.54 9396.5Z " fill="#bbbbbb" transform="matrix(1,0,0,1,-681,-9383)"></path></svg>