<svg id="icon-view" xmlns="http://www.w3.org/2000/svg" version="1.1" xmlns:xlink="http://www.w3.org/1999/xlink" xmlns:svgjs="http://svgjs.com/svgjs" width="29" height="17"><defs id="SvgjsDefs1001"></defs><path id="SvgjsPath1007" d="M814.42 613.023C805.0519999999999 613.023 800.14 619.9250000000001 800.14 621.02C800.14 622.114 805.052 629.0169999999999 814.42 629.0169999999999C823.788 629.0169999999999 828.6999999999999 622.1139999999999 828.6999999999999 621.02C828.6999999999999 619.925 823.7879999999999 613.023 814.42 613.023ZM814.42 627.172C810.915 627.172 808.073 624.418 808.073 621.02C808.073 617.622 810.915 614.8679999999999 814.42 614.8679999999999C817.925 614.8679999999999 820.7669999999999 617.622 820.7669999999999 621.02C820.7669999999999 624.418 817.925 627.172 814.42 627.172ZM817.593 621.02C817.593 622.718 816.1719999999999 624.096 814.42 624.096C812.6669999999999 624.096 811.247 622.718 811.247 621.02C811.247 619.322 812.6669999999999 617.9449999999999 814.42 617.9449999999999C815.367 617.9449999999999 813.8389999999999 620.382 814.42 621.02C814.914 621.562 817.593 620.24 817.593 621.02Z " fill="#ffffff" transform="matrix(1,0,0,1,-800,-613)"></path></svg>