<svg id="icon-comments" xmlns="http://www.w3.org/2000/svg" version="1.1" xmlns:xlink="http://www.w3.org/1999/xlink" xmlns:svgjs="http://svgjs.com/svgjs" width="30" height="27"><defs id="SvgjsDefs1009"></defs><path id="SvgjsPath1010" d="M713.942 626.442L713.942 616.448L708.4110000000001 616.448C706.84 616.448 705.5550000000001 617.733 705.5550000000001 619.304L705.5550000000001 628.607C705.5550000000001 630.178 706.84 631.463 708.4110000000001 631.463L709.9440000000001 631.463L709.9440000000001 635.747L714.2280000000001 631.463L721.368 631.463C722.9390000000001 631.463 724.224 630.178 724.224 628.607L724.224 626.413C724.1320000000001 626.432 724.0360000000001 626.442 723.9380000000001 626.442ZM734.115 612.584L734.115 621.872C734.115 623.443 732.83 624.728 731.259 624.728L729.936 624.728L729.936 629.012L725.652 624.728L715.6560000000001 624.728L715.6560000000001 612.584C715.6560000000001 611.0129999999999 716.941 609.728 718.5120000000001 609.728L731.259 609.728C732.83 609.728 734.115 611.0129999999999 734.115 612.584Z " fill="#ffffff" transform="matrix(1,0,0,1,-705,-609)"></path></svg>