<svg xmlns="http://www.w3.org/2000/svg" xmlns:xlink="http://www.w3.org/1999/xlink" width="56" height="487" viewBox="0 0 56 487"><svg width="50" height="56" viewBox="-5 -5 50 56" id="icon" y="0"><path d="M32.5 30.5c-1.718 0-3.296.58-4.561 1.56l-13.047-7.83c.065-.4.108-.81.108-1.23 0-.42-.043-.83-.108-1.23l13.047-7.83A7.412 7.412 0 0 0 32.5 15.5c4.142 0 7.5-3.36 7.5-7.5C40 3.86 36.642.5 32.5.5 28.358.5 25 3.86 25 8c0 .42.043.83.109 1.23l-13.047 7.83A7.413 7.413 0 0 0 7.5 15.5C3.358 15.5 0 18.86 0 23c0 4.14 3.358 7.5 7.5 7.5 1.719 0 3.297-.58 4.562-1.56l13.047 7.83c-.066.4-.109.81-.109 1.23 0 4.14 3.358 7.5 7.5 7.5 4.142 0 7.5-3.36 7.5-7.5 0-4.14-3.358-7.5-7.5-7.5z" fill="#fff"></path></svg><svg width="40" height="37" viewBox="-5 -5 40 37" id="icon-comments" y="56"><path d="M8.942 17.442V7.448H3.411a2.864 2.864 0 0 0-2.856 2.856v9.303a2.864 2.864 0 0 0 2.856 2.856h1.533v4.284l4.284-4.284h7.14a2.864 2.864 0 0 0 2.856-2.856v-2.194a1.415 1.415 0 0 1-.286.029zM29.115 3.584v9.288a2.864 2.864 0 0 1-2.856 2.856h-1.323v4.284l-4.284-4.284h-9.996V3.584A2.864 2.864 0 0 1 13.512.728h12.747a2.864 2.864 0 0 1 2.856 2.856z" fill="#fff"></path></svg><svg width="49" height="49" viewBox="-5 -5 49 49" id="icon-fb" y="93"><path d="M34.012.15H4.987C2.327.15.15 2.33.15 4.99v29.02c0 2.66 2.177 4.84 4.837 4.84h15.805V24.22h-4.634v-6.04h4.634V15.9c0-4.67 2.322-8.33 6.723-8.33h4.271v6.83h-3.821c-1.001 0-1.294.57-1.294 1.37v2.41h5.115v6.04h-5.115v14.63h7.341c2.661 0 4.838-2.18 4.838-4.84V4.99c0-2.66-2.177-4.84-4.838-4.84z" fill="#fff"></path></svg><svg width="52" height="50" viewBox="-5 -5 52 50" id="icon-gp" y="142"><path d="M2.977 10.07c0 3.36 1.122 5.79 3.336 7.22 1.811 1.16 3.915 1.34 5.008 1.34.265 0 .478-.01.626-.02 0 0-.347 2.26 1.327 4.49h-.075c-2.901 0-12.361.61-12.361 8.38 0 7.92 8.689 8.32 10.432 8.32.136 0 .216-.01.216-.01.019.01.144.01.356.01 1.119 0 4.01-.14 6.695-1.45 3.483-1.69 5.251-4.63 5.251-8.74 0-3.97-2.692-6.33-4.658-8.06-1.199-1.05-2.235-1.96-2.235-2.84 0-.9.756-1.58 1.713-2.44 1.551-1.39 3.012-3.36 3.012-7.09 0-3.28-.426-5.48-3.045-6.88.273-.14 1.238-.24 1.717-.3 1.419-.2 3.496-.42 3.496-1.58V.2H13.44c-.103 0-10.463.39-10.463 9.87zM19.68 30.35c.198 3.17-2.509 5.5-6.574 5.8-4.128.3-7.526-1.56-7.724-4.72-.096-1.52.572-3.01 1.879-4.19 1.326-1.2 3.146-1.94 5.127-2.09.233-.01.465-.02.697-.02 3.82 0 6.408 2.24 6.595 5.22zM16.978 7.91c1.015 3.57-.518 7.3-2.96 7.99-.28.08-.571.12-.865.12-2.238 0-4.455-2.26-5.276-5.38-.459-1.75-.422-3.29.105-4.76.517-1.45 1.446-2.43 2.616-2.75.281-.08.573-.12.866-.12 2.702 0 4.438 1.12 5.514 4.9zm24.184 7.77v4.28h-6.75v6.75h-4.275v-6.75h-6.75v-4.28h6.75V8.93h4.275v6.75z" fill="#fff"></path></svg><svg width="38" height="56" viewBox="-5 -5 38 56" id="icon-ok" y="192"><path d="M14 23.73c6.453 0 11.699-5.25 11.699-11.7C25.699 5.58 20.453.33 14 .33 7.548.33 2.301 5.58 2.301 12.03c0 6.45 5.247 11.7 11.699 11.7zm0-16.54a4.846 4.846 0 0 1 4.844 4.84c0 2.67-2.172 4.85-4.844 4.85-2.669 0-4.844-2.18-4.844-4.85 0-2.67 2.175-4.84 4.844-4.84zm4.733 26.08a21.81 21.81 0 0 0 6.794-2.81 3.427 3.427 0 1 0-3.652-5.8c-4.792 3.01-10.962 3.01-15.751 0a3.424 3.424 0 0 0-4.725 1.07 3.43 3.43 0 0 0 1.073 4.73 21.81 21.81 0 0 0 6.794 2.81l-6.541 6.54a3.433 3.433 0 0 0 .001 4.85c.67.67 1.547 1 2.423 1 .878 0 1.755-.33 2.425-1l6.425-6.43 6.43 6.43a3.428 3.428 0 0 0 4.845-4.85z" fill="#fff"></path></svg><svg width="47" height="45" viewBox="-5 -5 47 45" id="icon-picture" y="248"><path d="M31.325 11.51L27.643 1.36c-.272-.75-1.07-1.14-1.781-.88L1.387 9.41c-.711.26-1.068 1.08-.796 1.83l3.882 10.69V16.2c0-2.59 2.068-4.69 4.61-4.69h6.467l7.713-5.42 4.463 5.42zm3.804 3.24H9.083c-.757 0-1.371.65-1.371 1.45v16.96c0 .79.614 1.44 1.371 1.44h26.046c.757 0 1.371-.65 1.371-1.44V16.2c0-.8-.614-1.45-1.371-1.45zm-1.988 16.24h-21.59V27.9l3.321-7.73 4.983 6.18 4.674-4.79 6.01-2.17 2.602 5.8z" fill="#bababa"></path></svg><svg width="34" height="29" viewBox="-5 -5 34 29" id="icon-reply" y="293"><path d="M9.681 12.28v5.67L.288 9.25 9.681.86v5.03c11.407 0 14.007 12.65 14.007 12.65-3.229-5.71-7.816-6.26-14.007-6.26z" fill="#a8a8a8"></path></svg><svg width="56" height="48" viewBox="-5 -5 56 48" id="icon-tw" y="322"><path d="M45.639 4.46a18.885 18.885 0 0 1-5.36 1.47A9.39 9.39 0 0 0 44.383.76a18.727 18.727 0 0 1-5.927 2.27A9.299 9.299 0 0 0 31.644.08c-5.154 0-9.333 4.18-9.333 9.33 0 .73.083 1.45.242 2.13-7.756-.39-14.634-4.1-19.236-9.75a9.291 9.291 0 0 0-1.264 4.69c0 3.24 1.647 6.09 4.151 7.77a9.313 9.313 0 0 1-4.227-1.17v.12c0 4.52 3.218 8.29 7.486 9.15a9.234 9.234 0 0 1-4.214.16c1.187 3.71 4.635 6.41 8.718 6.48a18.75 18.75 0 0 1-11.591 4c-.753 0-1.495-.05-2.225-.14a26.393 26.393 0 0 0 14.305 4.2c17.166 0 26.554-14.22 26.554-26.56 0-.4-.009-.8-.027-1.2a19.055 19.055 0 0 0 4.656-4.83z" fill="#fff"></path></svg><svg width="47" height="37" viewBox="-5 -5 47 37" id="icon-video" y="370"><path d="M36.14 4.5V2.34c0-.8-.645-1.44-1.44-1.44H2.3C1.505.9.86 1.54.86 2.34V4.5h3.6v3.6H.86v3.6h3.6v3.6H.86v3.6h3.6v3.6H.86v2.16c0 .79.645 1.44 1.44 1.44h32.4c.795 0 1.44-.65 1.44-1.44V22.5h-3.6v-3.6h3.6v-3.6h-3.6v-3.6h3.6V8.1h-3.6V4.5zm-21.6 14.4V8.1l9 5.4z" fill="#bbb"></path></svg><svg width="39" height="27" viewBox="-5 -5 39 27" id="icon-view" y="407"><path d="M14.42.023C5.052.023.14 6.925.14 8.02c0 1.094 4.912 7.997 14.28 7.997 9.368 0 14.28-6.903 14.28-7.997 0-1.095-4.912-7.997-14.28-7.997zm0 14.149c-3.505 0-6.347-2.754-6.347-6.152s2.842-6.152 6.347-6.152c3.505 0 6.347 2.754 6.347 6.152s-2.842 6.152-6.347 6.152zm3.173-6.152c0 1.698-1.421 3.076-3.173 3.076-1.753 0-3.173-1.378-3.173-3.076 0-1.698 1.42-3.075 3.173-3.075.947 0-.581 2.437 0 3.075.494.542 3.173-.78 3.173 0z" fill="#fff"></path></svg><svg width="54" height="53" viewBox="-5 -5 54 53" id="icon-vk" y="434"><path d="M43.017 7.16v27.86c0 3.91-3.174 7.09-7.087 7.09H8.069c-3.913 0-7.086-3.18-7.086-7.09V7.16C.983 3.24 4.156.07 8.069.07H35.93a7.086 7.086 0 0 1 7.087 7.09zM24.602 22.72c-.647-.37-1.545-.37-2.275-.37H19.93v4.93h2.2c.815 0 1.853.06 2.555-.43.645-.43 1.01-1.29 1.01-2.1 0-.75-.449-1.65-1.093-2.03zm-.904-4.22c.533-.4.813-1.13.813-1.79 0-.73-.337-1.42-.954-1.8-.645-.38-1.825-.29-2.583-.29H19.93v4.35h1.381c.786 0 1.713.06 2.387-.47zm6.819 6.43c0-3.12-1.705-4.42-4.091-4.91v-.06c1.609-.48 2.871-2.03 2.871-4.29 0-2.93-2.405-4.59-5.012-4.59h-9v19.89h8.237c5.024 0 6.995-3.14 6.995-6.04z" fill="#fff"></path></svg></svg>