<svg id="SvgjsSvg1026" xmlns="http://www.w3.org/2000/svg" version="1.1" xmlns:xlink="http://www.w3.org/1999/xlink" xmlns:svgjs="http://svgjs.com/svgjs" width="46" height="38"><defs id="SvgjsDefs1027"></defs><path id="SvgjsPath1028" d="M406.639 9510.46C404.96500000000003 9511.199999999999 403.166 9511.699999999999 401.279 9511.929999999998C403.206 9510.769999999999 404.686 9508.939999999999 405.383 9506.759999999998C403.579 9507.829999999998 401.582 9508.609999999999 399.45599999999996 9509.029999999999C397.75399999999996 9507.21 395.328 9506.079999999998 392.64399999999995 9506.079999999998C387.48999999999995 9506.079999999998 383.3109999999999 9510.259999999998 383.3109999999999 9515.409999999998C383.3109999999999 9516.139999999998 383.39399999999995 9516.859999999999 383.55299999999994 9517.539999999997C375.7969999999999 9517.149999999998 368.9189999999999 9513.439999999997 364.31699999999995 9507.789999999997C363.51399999999995 9509.169999999996 363.05299999999994 9510.769999999997 363.05299999999994 9512.479999999998C363.05299999999994 9515.719999999998 364.69999999999993 9518.569999999998 367.20399999999995 9520.249999999998C365.67599999999993 9520.199999999999 364.23599999999993 9519.779999999999 362.977 9519.079999999998C362.977 9519.119999999999 362.977 9519.159999999998 362.977 9519.199999999999C362.977 9523.72 366.195 9527.49 370.46299999999997 9528.349999999999C369.67999999999995 9528.559999999998 368.85599999999994 9528.679999999998 368.00399999999996 9528.679999999998C367.40299999999996 9528.679999999998 366.81899999999996 9528.619999999999 366.24899999999997 9528.509999999998C367.436 9532.219999999998 370.88399999999996 9534.919999999998 374.967 9534.989999999998C371.772 9537.489999999998 367.74899999999997 9538.989999999998 363.376 9538.989999999998C362.623 9538.989999999998 361.881 9538.939999999999 361.15099999999995 9538.849999999999C365.28 9541.499999999998 370.18399999999997 9543.05 375.45599999999996 9543.05C392.62199999999996 9543.05 402.00999999999993 9528.83 402.00999999999993 9516.49C402.00999999999993 9516.09 402.0009999999999 9515.69 401.98299999999995 9515.289999999999C403.8059999999999 9513.97 405.3879999999999 9512.33 406.63899999999995 9510.46Z " fill="#ffffff" transform="matrix(1,0,0,1,-361,-9506)"></path></svg>