<svg id="SvgjsSvg1011" xmlns="http://www.w3.org/2000/svg" version="1.1" xmlns:xlink="http://www.w3.org/1999/xlink" xmlns:svgjs="http://svgjs.com/svgjs" width="40" height="46"><defs id="SvgjsDefs1012"></defs><path id="SvgjsPath1013" d="M869.5 1613.5C867.782 1613.5 866.204 1614.08 864.939 1615.06L851.8919999999999 1607.23C851.957 1606.83 851.9999999999999 1606.42 851.9999999999999 1606C851.9999999999999 1605.58 851.9569999999999 1605.17 851.8919999999999 1604.77L864.939 1596.94C866.204 1597.92 867.7819999999999 1598.5 869.5 1598.5C873.642 1598.5 877 1595.14 877 1591C877 1586.86 873.642 1583.5 869.5 1583.5C865.358 1583.5 862 1586.86 862 1591C862 1591.42 862.043 1591.83 862.109 1592.23L849.062 1600.06C847.797 1599.08 846.219 1598.5 844.5 1598.5C840.358 1598.5 837 1601.86 837 1606C837 1610.14 840.358 1613.5 844.5 1613.5C846.219 1613.5 847.797 1612.92 849.062 1611.94L862.109 1619.77C862.043 1620.17 862 1620.58 862 1621C862 1625.14 865.358 1628.5 869.5 1628.5C873.642 1628.5 877 1625.14 877 1621C877 1616.86 873.642 1613.5 869.5 1613.5Z " fill="#ffffff" transform="matrix(1,0,0,1,-837,-1583)"></path></svg>