<svg id="SvgjsSvg1017" xmlns="http://www.w3.org/2000/svg" version="1.1" xmlns:xlink="http://www.w3.org/1999/xlink" xmlns:svgjs="http://svgjs.com/svgjs" width="44" height="43"><defs id="SvgjsDefs1018"></defs><path id="SvgjsPath1019" d="M661.017 9512.16L661.017 9540.02C661.017 9543.93 657.8430000000001 9547.11 653.9300000000001 9547.11L626.0690000000001 9547.11C622.1560000000001 9547.11 618.9830000000001 9543.93 618.9830000000001 9540.02L618.9830000000001 9512.16C618.9830000000001 9508.24 622.1560000000001 9505.07 626.0690000000001 9505.07L653.9300000000001 9505.07C657.8430000000001 9505.07 661.017 9508.24 661.017 9512.16ZM642.602 9527.72C641.9549999999999 9527.349999999999 641.057 9527.349999999999 640.327 9527.349999999999L637.93 9527.349999999999L637.93 9532.279999999999L640.13 9532.279999999999C640.945 9532.279999999999 641.983 9532.339999999998 642.685 9531.849999999999C643.3299999999999 9531.419999999998 643.6949999999999 9530.559999999998 643.6949999999999 9529.749999999998C643.6949999999999 9528.999999999998 643.246 9528.099999999999 642.602 9527.719999999998ZM641.698 9523.5C642.231 9523.1 642.511 9522.37 642.511 9521.71C642.511 9520.98 642.174 9520.289999999999 641.557 9519.91C640.912 9519.53 639.732 9519.619999999999 638.974 9519.619999999999L637.9300000000001 9519.619999999999L637.9300000000001 9523.97L639.311 9523.97C640.097 9523.97 641.024 9524.029999999999 641.698 9523.5ZM648.517 9529.93C648.517 9526.81 646.812 9525.51 644.426 9525.02L644.426 9524.960000000001C646.0350000000001 9524.480000000001 647.297 9522.93 647.297 9520.67C647.297 9517.74 644.892 9516.08 642.2850000000001 9516.08L633.2850000000001 9516.08L633.2850000000001 9535.97L641.522 9535.97C646.546 9535.97 648.517 9532.83 648.517 9529.929999999998Z " fill="#ffffff" transform="matrix(1,0,0,1,-618,-9505)"></path></svg>