<svg id="SvgjsSvg1000" xmlns="http://www.w3.org/2000/svg" version="1.1" xmlns:xlink="http://www.w3.org/1999/xlink" xmlns:svgjs="http://svgjs.com/svgjs" width="37" height="35"><defs id="SvgjsDefs1001"></defs><path id="SvgjsPath1007" d="M622.325 9390.51L618.643 9380.36C618.371 9379.61 617.573 9379.220000000001 616.8620000000001 9379.480000000001L592.3870000000001 9388.410000000002C591.676 9388.670000000002 591.3190000000001 9389.490000000002 591.591 9390.240000000002L595.473 9400.930000000002L595.473 9395.200000000003C595.473 9392.610000000002 597.5409999999999 9390.510000000002 600.083 9390.510000000002L606.55 9390.510000000002L614.2629999999999 9385.090000000002L618.7259999999999 9390.510000000002ZM626.129 9393.75L600.083 9393.75C599.326 9393.75 598.712 9394.4 598.712 9395.2L598.712 9412.16C598.712 9412.95 599.326 9413.6 600.083 9413.6L626.129 9413.6C626.886 9413.6 627.5 9412.95 627.5 9412.16L627.5 9395.2C627.5 9394.400000000001 626.886 9393.75 626.129 9393.75ZM624.141 9409.99L602.5509999999999 9409.99L602.5509999999999 9406.9L605.872 9399.17L610.8549999999999 9405.35L615.5289999999999 9400.56L621.5389999999999 9398.39L624.1409999999998 9404.189999999999Z " fill="#bababa" transform="matrix(1,0,0,1,-591,-9379)"></path></svg>