<svg
  xmlns="http://www.w3.org/2000/svg"
  version="1.1" xmlns:xlink="http://www.w3.org/1999/xlink"
  xmlns:svgjs="http://svgjs.com/svgjs">
  <path id="icon-comments" d="M713.942 626.442L713.942 616.448L708.4110000000001 616.448C706.84 616.448 705.5550000000001 617.733 705.5550000000001 619.304L705.5550000000001 628.607C705.5550000000001 630.178 706.84 631.463 708.4110000000001 631.463L709.9440000000001 631.463L709.9440000000001 635.747L714.2280000000001 631.463L721.368 631.463C722.9390000000001 631.463 724.224 630.178 724.224 628.607L724.224 626.413C724.1320000000001 626.432 724.0360000000001 626.442 723.9380000000001 626.442ZM734.115 612.584L734.115 621.872C734.115 623.443 732.83 624.728 731.259 624.728L729.936 624.728L729.936 629.012L725.652 624.728L715.6560000000001 624.728L715.6560000000001 612.584C715.6560000000001 611.0129999999999 716.941 609.728 718.5120000000001 609.728L731.259 609.728C732.83 609.728 734.115 611.0129999999999 734.115 612.584Z " fill="#ffffff" transform="matrix(1,0,0,1,-705,-609)"></path>
  <path id="icon-fb" d="M527.012 9505.15L497.98699999999997 9505.15C495.32699999999994 9505.15 493.15 9507.33 493.15 9509.99L493.15 9539.01C493.15 9541.67 495.327 9543.85 497.98699999999997 9543.85L513.7919999999999 9543.85L513.7919999999999 9529.220000000001L509.1579999999999 9529.220000000001L509.1579999999999 9523.18L513.7919999999999 9523.18L513.7919999999999 9520.9C513.7919999999999 9516.23 516.1139999999999 9512.57 520.5149999999999 9512.57L524.7859999999998 9512.57L524.7859999999998 9519.4L520.9649999999998 9519.4C519.9639999999998 9519.4 519.6709999999998 9519.97 519.6709999999998 9520.77L519.6709999999998 9523.18L524.7859999999998 9523.18L524.7859999999998 9529.220000000001L519.6709999999998 9529.220000000001L519.6709999999998 9543.85L527.0119999999998 9543.85C529.6729999999998 9543.85 531.8499999999998 9541.67 531.8499999999998 9539.01L531.8499999999998 9509.99C531.8499999999998 9507.33 529.6729999999998 9505.15 527.0119999999998 9505.15Z " fill="#ffffff" transform="matrix(1,0,0,1,-493,-9505)"></path>
  <path id="icon-tw" d="M406.639 9510.46C404.96500000000003 9511.199999999999 403.166 9511.699999999999 401.279 9511.929999999998C403.206 9510.769999999999 404.686 9508.939999999999 405.383 9506.759999999998C403.579 9507.829999999998 401.582 9508.609999999999 399.45599999999996 9509.029999999999C397.75399999999996 9507.21 395.328 9506.079999999998 392.64399999999995 9506.079999999998C387.48999999999995 9506.079999999998 383.3109999999999 9510.259999999998 383.3109999999999 9515.409999999998C383.3109999999999 9516.139999999998 383.39399999999995 9516.859999999999 383.55299999999994 9517.539999999997C375.7969999999999 9517.149999999998 368.9189999999999 9513.439999999997 364.31699999999995 9507.789999999997C363.51399999999995 9509.169999999996 363.05299999999994 9510.769999999997 363.05299999999994 9512.479999999998C363.05299999999994 9515.719999999998 364.69999999999993 9518.569999999998 367.20399999999995 9520.249999999998C365.67599999999993 9520.199999999999 364.23599999999993 9519.779999999999 362.977 9519.079999999998C362.977 9519.119999999999 362.977 9519.159999999998 362.977 9519.199999999999C362.977 9523.72 366.195 9527.49 370.46299999999997 9528.349999999999C369.67999999999995 9528.559999999998 368.85599999999994 9528.679999999998 368.00399999999996 9528.679999999998C367.40299999999996 9528.679999999998 366.81899999999996 9528.619999999999 366.24899999999997 9528.509999999998C367.436 9532.219999999998 370.88399999999996 9534.919999999998 374.967 9534.989999999998C371.772 9537.489999999998 367.74899999999997 9538.989999999998 363.376 9538.989999999998C362.623 9538.989999999998 361.881 9538.939999999999 361.15099999999995 9538.849999999999C365.28 9541.499999999998 370.18399999999997 9543.05 375.45599999999996 9543.05C392.62199999999996 9543.05 402.00999999999993 9528.83 402.00999999999993 9516.49C402.00999999999993 9516.09 402.0009999999999 9515.69 401.98299999999995 9515.289999999999C403.8059999999999 9513.97 405.3879999999999 9512.33 406.63899999999995 9510.46Z " fill="#ffffff" transform="matrix(1,0,0,1,-361,-9506)"></path>
  <path id="icon-gp" d="M751.977 9517.07C751.977 9520.43 753.0989999999999 9522.86 755.313 9524.289999999999C757.124 9525.449999999999 759.228 9525.63 760.321 9525.63C760.586 9525.63 760.799 9525.619999999999 760.947 9525.609999999999C760.947 9525.609999999999 760.6 9527.869999999999 762.274 9530.099999999999L762.199 9530.099999999999C759.298 9530.099999999999 749.838 9530.71 749.838 9538.479999999998C749.838 9546.399999999998 758.5269999999999 9546.799999999997 760.27 9546.799999999997C760.406 9546.799999999997 760.486 9546.789999999997 760.486 9546.789999999997C760.505 9546.799999999997 760.63 9546.799999999997 760.842 9546.799999999997C761.961 9546.799999999997 764.852 9546.659999999998 767.537 9545.349999999997C771.02 9543.659999999996 772.788 9540.719999999998 772.788 9536.609999999997C772.788 9532.639999999998 770.096 9530.279999999997 768.13 9528.549999999997C766.931 9527.499999999998 765.895 9526.589999999998 765.895 9525.709999999997C765.895 9524.809999999998 766.651 9524.129999999997 767.608 9523.269999999997C769.159 9521.879999999997 770.6199999999999 9519.909999999996 770.6199999999999 9516.179999999997C770.6199999999999 9512.899999999996 770.1939999999998 9510.699999999997 767.5749999999999 9509.299999999997C767.848 9509.159999999998 768.813 9509.059999999998 769.2919999999999 9508.999999999998C770.7109999999999 9508.799999999997 772.7879999999999 9508.579999999998 772.7879999999999 9507.419999999998L772.7879999999999 9507.199999999999L762.4399999999999 9507.199999999999C762.337 9507.199999999999 751.977 9507.589999999998 751.977 9517.07ZM768.68 9537.35C768.8779999999999 9540.52 766.1709999999999 9542.85 762.106 9543.15C757.978 9543.449999999999 754.58 9541.59 754.382 9538.43C754.286 9536.91 754.954 9535.42 756.261 9534.24C757.587 9533.039999999999 759.4069999999999 9532.3 761.3879999999999 9532.15C761.6209999999999 9532.14 761.853 9532.13 762.0849999999999 9532.13C765.905 9532.13 768.4929999999999 9534.369999999999 768.68 9537.349999999999ZM765.978 9514.91C766.9929999999999 9518.48 765.4599999999999 9522.21 763.0179999999999 9522.9C762.7379999999999 9522.98 762.4469999999999 9523.02 762.1529999999999 9523.02C759.9149999999998 9523.02 757.6979999999999 9520.76 756.877 9517.640000000001C756.418 9515.890000000001 756.4549999999999 9514.35 756.982 9512.880000000001C757.499 9511.43 758.428 9510.45 759.598 9510.130000000001C759.8789999999999 9510.050000000001 760.1709999999999 9510.01 760.4639999999999 9510.01C763.1659999999999 9510.01 764.9019999999999 9511.130000000001 765.978 9514.91ZM790.162 9522.68L790.162 9526.960000000001L783.412 9526.960000000001L783.412 9533.710000000001L779.1370000000001 9533.710000000001L779.1370000000001 9526.960000000001L772.3870000000001 9526.960000000001L772.3870000000001 9522.68L779.1370000000001 9522.68L779.1370000000001 9515.93L783.412 9515.93L783.412 9522.68Z " fill="#ffffff" transform="matrix(1,0,0,1,-749,-9507)"></path>
  <path id="icon-vk" d="M661.017 9512.16L661.017 9540.02C661.017 9543.93 657.8430000000001 9547.11 653.9300000000001 9547.11L626.0690000000001 9547.11C622.1560000000001 9547.11 618.9830000000001 9543.93 618.9830000000001 9540.02L618.9830000000001 9512.16C618.9830000000001 9508.24 622.1560000000001 9505.07 626.0690000000001 9505.07L653.9300000000001 9505.07C657.8430000000001 9505.07 661.017 9508.24 661.017 9512.16ZM642.602 9527.72C641.9549999999999 9527.349999999999 641.057 9527.349999999999 640.327 9527.349999999999L637.93 9527.349999999999L637.93 9532.279999999999L640.13 9532.279999999999C640.945 9532.279999999999 641.983 9532.339999999998 642.685 9531.849999999999C643.3299999999999 9531.419999999998 643.6949999999999 9530.559999999998 643.6949999999999 9529.749999999998C643.6949999999999 9528.999999999998 643.246 9528.099999999999 642.602 9527.719999999998ZM641.698 9523.5C642.231 9523.1 642.511 9522.37 642.511 9521.71C642.511 9520.98 642.174 9520.289999999999 641.557 9519.91C640.912 9519.53 639.732 9519.619999999999 638.974 9519.619999999999L637.9300000000001 9519.619999999999L637.9300000000001 9523.97L639.311 9523.97C640.097 9523.97 641.024 9524.029999999999 641.698 9523.5ZM648.517 9529.93C648.517 9526.81 646.812 9525.51 644.426 9525.02L644.426 9524.960000000001C646.0350000000001 9524.480000000001 647.297 9522.93 647.297 9520.67C647.297 9517.74 644.892 9516.08 642.2850000000001 9516.08L633.2850000000001 9516.08L633.2850000000001 9535.97L641.522 9535.97C646.546 9535.97 648.517 9532.83 648.517 9529.929999999998Z " fill="#ffffff" transform="matrix(1,0,0,1,-618,-9505)"></path>
  <path id="icon-ok" d="M898 9525.73C904.453 9525.73 909.699 9520.48 909.699 9514.029999999999C909.699 9507.579999999998 904.453 9502.329999999998 898 9502.329999999998C891.548 9502.329999999998 886.301 9507.579999999998 886.301 9514.029999999999C886.301 9520.48 891.548 9525.73 898 9525.73ZM898 9509.19C900.672 9509.19 902.844 9511.36 902.844 9514.03C902.844 9516.7 900.672 9518.880000000001 898 9518.880000000001C895.331 9518.880000000001 893.156 9516.7 893.156 9514.03C893.156 9511.36 895.3309999999999 9509.19 898 9509.19ZM902.733 9535.27C905.1149999999999 9534.73 907.4119999999999 9533.79 909.5269999999999 9532.460000000001C911.1279999999999 9531.45 911.6099999999999 9529.34 910.602 9527.730000000001C909.5939999999999 9526.130000000001 907.4789999999999 9525.650000000001 905.875 9526.660000000002C901.083 9529.670000000002 894.913 9529.670000000002 890.124 9526.660000000002C888.52 9525.650000000001 886.405 9526.130000000001 885.399 9527.730000000001C884.39 9529.340000000002 884.871 9531.45 886.472 9532.460000000001C888.587 9533.79 890.884 9534.730000000001 893.266 9535.27L886.7249999999999 9541.810000000001C885.3879999999999 9543.150000000001 885.3879999999999 9545.320000000002 886.7259999999999 9546.660000000002C887.3959999999998 9547.330000000002 888.2729999999999 9547.660000000002 889.1489999999999 9547.660000000002C890.0269999999999 9547.660000000002 890.9039999999999 9547.330000000002 891.5739999999998 9546.660000000002L897.9989999999998 9540.230000000001L904.4289999999997 9546.660000000002C905.7659999999997 9548.000000000002 907.9349999999997 9548.000000000002 909.2739999999998 9546.660000000002C910.6139999999998 9545.320000000002 910.6139999999998 9543.150000000001 909.2739999999998 9541.810000000001Z " fill="#ffffff" transform="matrix(1,0,0,1,-884,-9502)"></path>
  <path id="icon-sh" d="M869.5 1613.5C867.782 1613.5 866.204 1614.08 864.939 1615.06L851.8919999999999 1607.23C851.957 1606.83 851.9999999999999 1606.42 851.9999999999999 1606C851.9999999999999 1605.58 851.9569999999999 1605.17 851.8919999999999 1604.77L864.939 1596.94C866.204 1597.92 867.7819999999999 1598.5 869.5 1598.5C873.642 1598.5 877 1595.14 877 1591C877 1586.86 873.642 1583.5 869.5 1583.5C865.358 1583.5 862 1586.86 862 1591C862 1591.42 862.043 1591.83 862.109 1592.23L849.062 1600.06C847.797 1599.08 846.219 1598.5 844.5 1598.5C840.358 1598.5 837 1601.86 837 1606C837 1610.14 840.358 1613.5 844.5 1613.5C846.219 1613.5 847.797 1612.92 849.062 1611.94L862.109 1619.77C862.043 1620.17 862 1620.58 862 1621C862 1625.14 865.358 1628.5 869.5 1628.5C873.642 1628.5 877 1625.14 877 1621C877 1616.86 873.642 1613.5 869.5 1613.5Z " fill="#ffffff" transform="matrix(1,0,0,1,-837,-1583)"></path>
  <path id="icon-view" d="M814.42 613.023C805.0519999999999 613.023 800.14 619.9250000000001 800.14 621.02C800.14 622.114 805.052 629.0169999999999 814.42 629.0169999999999C823.788 629.0169999999999 828.6999999999999 622.1139999999999 828.6999999999999 621.02C828.6999999999999 619.925 823.7879999999999 613.023 814.42 613.023ZM814.42 627.172C810.915 627.172 808.073 624.418 808.073 621.02C808.073 617.622 810.915 614.8679999999999 814.42 614.8679999999999C817.925 614.8679999999999 820.7669999999999 617.622 820.7669999999999 621.02C820.7669999999999 624.418 817.925 627.172 814.42 627.172ZM817.593 621.02C817.593 622.718 816.1719999999999 624.096 814.42 624.096C812.6669999999999 624.096 811.247 622.718 811.247 621.02C811.247 619.322 812.6669999999999 617.9449999999999 814.42 617.9449999999999C815.367 617.9449999999999 813.8389999999999 620.382 814.42 621.02C814.914 621.562 817.593 620.24 817.593 621.02Z " fill="#ffffff" transform="matrix(1,0,0,1,-800,-613)"></path>
  <path id="icon-reply" d="M471.681 7321.28L471.681 7326.95L462.288 7318.25L471.68100000000004 7309.86L471.68100000000004 7314.889999999999C483.088 7314.889999999999 485.68800000000005 7327.539999999999 485.68800000000005 7327.539999999999C482.45900000000006 7321.829999999999 477.87200000000007 7321.279999999999 471.68100000000004 7321.279999999999Z " fill="#a8a8a8" transform="matrix(1,0,0,1,-462,-7309)"></path>
  <path id="icon-picture" d="M622.325 9390.51L618.643 9380.36C618.371 9379.61 617.573 9379.220000000001 616.8620000000001 9379.480000000001L592.3870000000001 9388.410000000002C591.676 9388.670000000002 591.3190000000001 9389.490000000002 591.591 9390.240000000002L595.473 9400.930000000002L595.473 9395.200000000003C595.473 9392.610000000002 597.5409999999999 9390.510000000002 600.083 9390.510000000002L606.55 9390.510000000002L614.2629999999999 9385.090000000002L618.7259999999999 9390.510000000002ZM626.129 9393.75L600.083 9393.75C599.326 9393.75 598.712 9394.4 598.712 9395.2L598.712 9412.16C598.712 9412.95 599.326 9413.6 600.083 9413.6L626.129 9413.6C626.886 9413.6 627.5 9412.95 627.5 9412.16L627.5 9395.2C627.5 9394.400000000001 626.886 9393.75 626.129 9393.75ZM624.141 9409.99L602.5509999999999 9409.99L602.5509999999999 9406.9L605.872 9399.17L610.8549999999999 9405.35L615.5289999999999 9400.56L621.5389999999999 9398.39L624.1409999999998 9404.189999999999Z " fill="#bababa" transform="matrix(1,0,0,1,-591,-9379)"></path>
  <path id="icon-video"  d="M717.14 9387.5L717.14 9385.34C717.14 9384.54 716.495 9383.9 715.6999999999999 9383.9L683.3 9383.9C682.505 9383.9 681.8599999999999 9384.539999999999 681.8599999999999 9385.34L681.8599999999999 9387.5L685.4599999999999 9387.5L685.4599999999999 9391.1L681.8599999999999 9391.1L681.8599999999999 9394.7L685.4599999999999 9394.7L685.4599999999999 9398.300000000001L681.8599999999999 9398.300000000001L681.8599999999999 9401.900000000001L685.4599999999999 9401.900000000001L685.4599999999999 9405.500000000002L681.8599999999999 9405.500000000002L681.8599999999999 9407.660000000002C681.8599999999999 9408.450000000003 682.5049999999999 9409.100000000002 683.3 9409.100000000002L715.6999999999999 9409.100000000002C716.4949999999999 9409.100000000002 717.14 9408.450000000003 717.14 9407.660000000002L717.14 9405.500000000002L713.54 9405.500000000002L713.54 9401.900000000001L717.14 9401.900000000001L717.14 9398.300000000001L713.54 9398.300000000001L713.54 9394.7L717.14 9394.7L717.14 9391.1L713.54 9391.1L713.54 9387.5ZM695.54 9401.9L695.54 9391.1L704.54 9396.5Z " fill="#bbbbbb" transform="matrix(1,0,0,1,-681,-9383)"></path>
</svg>